<?xml version="1.0" encoding="UTF-8"?>
<svg version="1.1" xmlns="http://www.w3.org/2000/svg" width="480" height="451">
<path d="M0 0 C3.56826752 1.57055548 6.83071188 3.45014153 10.10546875 5.546875 C10.6984375 5.91941406 11.29140625 6.29195313 11.90234375 6.67578125 C13.34860305 7.585525 14.79004921 8.50291298 16.23046875 9.421875 C15.57171405 14.18859443 14.29407038 18.61682678 12.79296875 23.171875 C4.43068467 49.32936205 5.7039383 75.80727475 17.48046875 100.671875 C29.41663184 123.31208112 49.08913918 140.0727596 73.23046875 148.421875 C99.3946952 156.50532524 126.76993707 155.21239668 151.23046875 142.421875 C162.83461959 135.92150675 173.30962454 127.44820326 181.85546875 117.234375 C182.63921875 116.30625 183.42296875 115.378125 184.23046875 114.421875 C184.89046875 114.421875 185.55046875 114.421875 186.23046875 114.421875 C185.7209224 118.66809459 183.28095117 120.83710513 180.41796875 123.859375 C177.88974386 126.54444693 175.41445931 129.1913776 173.11328125 132.07421875 C160.45868534 147.85308212 139.50046686 158.87347186 120.73046875 165.296875 C119.93753418 165.57112305 119.14459961 165.84537109 118.32763672 166.12792969 C104.38545621 170.61820987 90.3512713 171.98535263 75.79296875 171.859375 C75.02944092 171.85600128 74.26591309 171.85262756 73.47924805 171.84915161 C61.9773384 171.7756949 51.18770778 171.12857945 40.23046875 167.421875 C39.46428223 167.17518066 38.6980957 166.92848633 37.90869141 166.67431641 C13.28892256 158.64838016 -6.94107947 145.30577193 -23.76953125 125.421875 C-27.87971083 128.81724074 -31.65068481 132.31406732 -35.33203125 136.171875 C-47.76001852 148.67484259 -63.72025869 158.02799131 -80.14453125 164.234375 C-80.83764404 164.50016357 -81.53075684 164.76595215 -82.24487305 165.03979492 C-96.66638865 170.19369236 -110.96511562 172.12878778 -126.20703125 171.921875 C-127.41619202 171.91356659 -127.41619202 171.91356659 -128.64978027 171.90509033 C-140.7412613 171.80784383 -152.17947858 171.12550564 -163.76953125 167.421875 C-164.48367187 167.20756836 -165.1978125 166.99326172 -165.93359375 166.77246094 C-180.95452825 162.21443002 -194.48265916 155.24795491 -206.76953125 145.421875 C-207.31464355 144.98891113 -207.85975586 144.55594727 -208.42138672 144.10986328 C-215.21289484 138.66718467 -221.48457897 132.98536465 -227.14453125 126.359375 C-227.61503906 125.81128174 -228.08554688 125.26318848 -228.5703125 124.69848633 C-231.76953125 120.81068193 -231.76953125 120.81068193 -231.76953125 117.421875 C-231.10953125 117.421875 -230.44953125 117.421875 -229.76953125 117.421875 C-228.359375 118.890625 -228.359375 118.890625 -226.70703125 120.921875 C-211.52407471 138.62495342 -189.01079643 150.78220128 -165.76953125 153.421875 C-146.55912248 154.8691478 -129.2194391 152.87528097 -111.76953125 144.421875 C-110.72410156 143.91914063 -109.67867188 143.41640625 -108.6015625 142.8984375 C-85.32443407 131.05129686 -69.40516796 112.4138919 -60.5234375 87.99609375 C-53.1870082 64.69688421 -54.60994091 39.19535808 -64.03515625 16.68359375 C-64.85701708 14.15243725 -64.90059158 12.06648528 -64.76953125 9.421875 C-62.1942741 7.88570417 -59.61085725 6.36799299 -57.01953125 4.859375 C-56.28992188 4.42173828 -55.5603125 3.98410156 -54.80859375 3.53320312 C-54.09960938 3.12392578 -53.390625 2.71464844 -52.66015625 2.29296875 C-52.01079102 1.91068115 -51.36142578 1.52839355 -50.69238281 1.13452148 C-48.28629728 0.24277902 -47.14672734 0.54109101 -44.76953125 1.421875 C-43.27905849 2.35138801 -41.82170041 3.33531853 -40.39453125 4.359375 C-34.02549456 8.68492598 -28.44323369 10.38258892 -20.76953125 9.421875 C-14.12640301 7.77744382 -9.07171854 5.57073033 -4.5 0.3984375 C-2.76953125 -0.578125 -2.76953125 -0.578125 0 0 Z " fill="#838484" transform="translate(265.76953125,274.578125)"/>
<path d="M0 0 C0 0.66 0 1.32 0 2 C-0.80497925 2.2019397 -0.80497925 2.2019397 -1.6262207 2.40795898 C-29.22349078 9.4662267 -54.49762559 21.67810521 -69.98022461 46.65820312 C-84.3526978 70.96912388 -88.45192618 99.15655046 -81.52661133 126.51953125 C-77.60922272 140.5201775 -70.61054788 153.11976592 -61 164 C-60.22527344 164.97582031 -59.45054687 165.95164063 -58.65234375 166.95703125 C-56.05161153 170.0823514 -53.06115655 172.57296546 -49.8125 175 C-49.23935059 175.43151367 -48.66620117 175.86302734 -48.07568359 176.30761719 C-31.05753436 188.9561775 -12.67963811 194.2400658 8 198 C8 205.59 8 213.18 8 221 C6.288125 221.5775 4.57625 222.155 2.8125 222.75 C-4.31246815 225.36248832 -8.1536658 228.3683893 -12 235 C-13.6620013 238.7118029 -14.09469646 241.4202356 -13.59765625 245.390625 C-12.41347869 255.27325358 -12.41347869 255.27325358 -14 260 C-17.98576787 264.71533297 -24.90556289 268.82202773 -31 270 C-34.7514537 268.62516653 -36.43471231 266.47481235 -38.8125 263.3125 C-54.76306742 242.88406686 -78.39848322 229.73215357 -104 226 C-132.58750858 223.64134668 -158.58839626 231.55264253 -180.734375 250.01953125 C-201.01718934 267.74950861 -211.9353044 291.85669721 -213.8125 318.546875 C-214.43257403 331.32222386 -212.52154054 343.71026875 -208.90234375 355.93359375 C-208.11297293 358.61608766 -207.49842101 361.2509769 -207 364 C-207.99 363.67 -208.98 363.34 -210 363 C-211.14626497 360.36511892 -212.07509189 357.85392792 -212.9375 355.125 C-213.19619873 354.32795654 -213.45489746 353.53091309 -213.72143555 352.7097168 C-225.53449234 315.11404926 -222.47585129 278.25294881 -204.27880859 243.34570312 C-201.30193926 237.88526774 -197.8411717 232.8946034 -194 228 C-193.58137695 227.4647168 -193.16275391 226.92943359 -192.73144531 226.37792969 C-174.11279274 202.81822625 -146.76263161 182.9803244 -116.41503906 178.62939453 C-114.27993035 178.38887174 -112.14018778 178.19009652 -110 178 C-110.32613281 177.05382812 -110.65226562 176.10765625 -110.98828125 175.1328125 C-122.49978966 140.7745063 -120.46868014 103.73444718 -104.71582031 71.03100586 C-98.04739747 57.79318274 -89.30841442 46.56938693 -79 36 C-78.4328125 35.3709375 -77.865625 34.741875 -77.28125 34.09375 C-67.31535132 23.31430857 -54.27484997 15.89721123 -41 10 C-39.95714844 9.52949219 -38.91429687 9.05898437 -37.83984375 8.57421875 C-31.10517618 5.7673831 -24.19772009 3.91429676 -17.125 2.1875 C-16.23272705 1.96811768 -15.3404541 1.74873535 -14.42114258 1.52270508 C-9.48775416 0.37561007 -5.06348709 -0.24144693 0 0 Z " fill="#3452A4" transform="translate(228,6)"/>
<path d="M0 0 C26.30802079 0.65031063 53.17572487 13.20029316 73 30 C73.51691406 30.43715332 74.03382813 30.87430664 74.56640625 31.32470703 C100.97495671 53.95233407 117.34819667 86.41644058 120.625 121 C122.02884763 140.96016082 119.59104485 160.40194011 112 179 C113.28390625 179.10570312 114.5678125 179.21140625 115.890625 179.3203125 C138.29558926 181.84764844 160.26212838 194.43587794 177 209 C177.91007813 209.76054687 178.82015625 210.52109375 179.7578125 211.3046875 C185.94874015 216.62472013 191.03547054 222.53708529 196 229 C197.00160156 230.26070313 197.00160156 230.26070313 198.0234375 231.546875 C218.75999834 258.59456306 226.60070144 293.01655829 222.17431641 326.5637207 C220.34912527 338.53830462 216.88723408 349.91848086 212 361 C211.34 361 210.68 361 210 361 C210.268125 359.80375 210.53625 358.6075 210.8125 357.375 C210.99296875 356.54613281 211.1734375 355.71726562 211.359375 354.86328125 C211.80401399 352.87596186 212.27466003 350.89435323 212.765625 348.91796875 C219.20804794 321.79031529 215.37917238 294.95635752 201 271 C198.54495628 267.44852898 195.86970259 264.22063269 193 261 C192.09701172 259.88431641 192.09701172 259.88431641 191.17578125 258.74609375 C174.50114511 238.64564138 149.40318271 228.78391043 124 226 C98.19804849 224.05497656 73.56965556 234.04489258 54.0234375 250.37109375 C47.13612704 256.29554711 41.40661034 262.70107604 36 270 C31.36219454 269.41584893 27.73341178 267.4307508 23.75 265.125 C23.11320312 264.77308594 22.47640625 264.42117188 21.8203125 264.05859375 C17.12346626 261.37039877 17.12346626 261.37039877 16 258 C16.33333333 256.33333333 16.66666667 254.66666667 17 253 C17.66200784 245.32070909 15.95412766 238.42275112 11.6328125 231.953125 C6.61499169 226.31119713 -0.16552551 223.8887985 -7 221 C-7 213.74 -7 206.48 -7 199 C-2.2975 198.195625 -2.2975 198.195625 2.5 197.375 C23.09174329 193.56041426 41.39726969 185.15559681 57 171 C57.63035156 170.45085937 58.26070313 169.90171875 58.91015625 169.3359375 C74.44704296 154.96697165 85.02742919 130.6570855 86.12255859 109.64892578 C87.03514528 80.39637437 79.75474739 55.06608895 60 33 C59.44957031 32.36707031 58.89914062 31.73414062 58.33203125 31.08203125 C43.14832235 14.6986219 21.04660476 7.16852462 0 2 C0 1.34 0 0.68 0 0 Z " fill="#CE2127" transform="translate(254,5)"/>
<path d="M0 0 C0.63164062 0.62519531 1.26328125 1.25039062 1.9140625 1.89453125 C1.9140625 5.89453125 1.9140625 5.89453125 -0.24609375 8.41015625 C-1.20386719 9.3125 -2.16164063 10.21484375 -3.1484375 11.14453125 C-4.16503161 12.11350819 -5.17935137 13.08487674 -6.19140625 14.05859375 C-6.93656494 14.77450684 -6.93656494 14.77450684 -7.69677734 15.50488281 C-10.16054443 17.96951589 -12.3128702 20.68824074 -14.453125 23.43359375 C-16.70812511 25.45122543 -18.05785463 25.79417692 -21.0859375 25.89453125 C-24.1796875 24.6015625 -24.1796875 24.6015625 -27.5859375 22.70703125 C-34.1947876 19.18481852 -40.79514773 16.70011416 -48.0859375 14.89453125 C-48.80104492 14.71720459 -49.51615234 14.53987793 -50.25292969 14.35717773 C-57.13234286 12.80204278 -63.79935267 12.54650334 -70.8359375 12.58203125 C-72.55901123 12.58940308 -72.55901123 12.58940308 -74.31689453 12.59692383 C-90.49027538 12.82018655 -104.42564642 16.71773429 -117.9296875 25.85546875 C-120.0859375 26.89453125 -120.0859375 26.89453125 -121.92285156 26.73022461 C-126.93876024 24.79236283 -130.61526725 19.83136212 -134.3359375 16.08203125 C-135.27179688 15.16615234 -136.20765625 14.25027344 -137.171875 13.30664062 C-138.05617187 12.42169922 -138.94046875 11.53675781 -139.8515625 10.625 C-140.66399414 9.81442139 -141.47642578 9.00384277 -142.31347656 8.16870117 C-144.0859375 5.89453125 -144.0859375 5.89453125 -144.0859375 1.89453125 C-142.75097656 0.55761719 -142.75097656 0.55761719 -140.8515625 -0.62109375 C-140.14265869 -1.06380615 -139.43375488 -1.50651855 -138.70336914 -1.96264648 C-137.9221167 -2.42227783 -137.14086426 -2.88190918 -136.3359375 -3.35546875 C-135.52825928 -3.83636963 -134.72058105 -4.31727051 -133.88842773 -4.81274414 C-91.95981328 -29.04649219 -39.77895129 -28.14332145 0 0 Z " fill="#838484" transform="translate(312.0859375,152.10546875)"/>
<path d="M0 0 C5.82167042 30.37597389 -4.69586662 62.59194143 -21.5859375 87.6171875 C-33.97030552 105.31936838 -50.72137377 119.99527912 -71 128 C-72.32 128 -73.64 128 -75 128 C-76.34488884 123.77442007 -77.6738753 119.54400264 -79 115.3125 C-79.3815625 114.11431641 -79.763125 112.91613281 -80.15625 111.68164062 C-80.5171875 110.52470703 -80.878125 109.36777344 -81.25 108.17578125 C-81.58515625 107.11270752 -81.9203125 106.04963379 -82.265625 104.9543457 C-82.97103584 102.11652104 -83.3443773 99.90183859 -83 97 C-80.5078125 95.078125 -80.5078125 95.078125 -77.125 93.25 C-55.83633765 81.10908167 -41.19189144 59.68446636 -34.76171875 36.32421875 C-33.25877086 29.76520001 -32.76670558 23.25994472 -32.4375 16.5625 C-32.37272461 15.32209961 -32.37272461 15.32209961 -32.30664062 14.05664062 C-32.20161967 12.03790451 -32.10041441 10.01897049 -32 8 C-27.92624972 6.85574369 -23.85112696 5.71655433 -19.7746582 4.58203125 C-18.38820225 4.19539995 -17.00213034 3.80738875 -15.61645508 3.41796875 C-13.6242051 2.85833995 -11.630625 2.30369449 -9.63671875 1.75 C-8.43748779 1.41484375 -7.23825684 1.0796875 -6.00268555 0.734375 C-3 0 -3 0 0 0 Z " fill="#3452A4" transform="translate(366,241)"/>
<path d="M0 0 C6.88085948 0.65335084 13.33546035 2.26499275 20 4.0625 C21.06089844 4.34416016 22.12179688 4.62582031 23.21484375 4.91601562 C25.81117401 5.60603133 28.40613311 6.30079203 31 7 C31.08636719 8.22332031 31.17273438 9.44664062 31.26171875 10.70703125 C33.38420441 37.40651087 41.53445948 62.87531224 61.40234375 81.8671875 C66.57618271 86.11518159 72.27265958 89.55529525 78 93 C78.96421875 93.58007812 79.9284375 94.16015625 80.921875 94.7578125 C81.60765625 95.16773438 82.2934375 95.57765625 83 96 C82.38569577 103.1293899 80.50188332 109.66505166 78.4375 116.5 C78.10814453 117.60859375 77.77878906 118.7171875 77.43945312 119.859375 C76.63189543 122.57464144 75.81862271 125.28805315 75 128 C70.27300524 127.18910779 66.56797661 125.36520603 62.4375 123 C61.73077148 122.59700684 61.02404297 122.19401367 60.29589844 121.77880859 C53.80105521 118.00263448 47.80205163 113.77955892 42 109 C41.01515625 108.19175781 40.0303125 107.38351562 39.015625 106.55078125 C17.78061853 88.14894274 1.47280398 59.26106636 -1 31 C-1.14152141 26.624202 -1.13960867 22.25273078 -1.125 17.875 C-1.12886719 16.70839844 -1.13273437 15.54179687 -1.13671875 14.33984375 C-1.13542969 13.21449219 -1.13414063 12.08914062 -1.1328125 10.9296875 C-1.13168457 9.91116699 -1.13055664 8.89264648 -1.12939453 7.84326172 C-1.00568132 5.12483905 -0.61128642 2.64728907 0 0 Z " fill="#CE2127" transform="translate(118,241)"/>
</svg>
