<svg width="512" height="512" version="1.1" viewBox="0 0 512 512" xmlns="http://www.w3.org/2000/svg">
 <path d="m256 0a170 170 0 0 0-170 170v342h340v-342a170 170 0 0 0-170-170z" fill="#cc0000"/>
 <path d="m255.56 32a138 138 0 0 0-137.56 138v260h276v-260a138 138 0 0 0-138-138 138 138 0 0 0-0.43555 0z" fill="#423930"/>
 <path d="m255.97 216a68 68 0 0 0-67.973 68v228h136v-228a68 68 0 0 0-68-68 68 68 0 0 0-0.02734 0z" fill="#cc0000"/>
 <path d="m255.9 304a28 16 0 0 0-27.9 16v192h56v-192a28 16 0 0 0-28-16 28 16 0 0 0-0.09961 0z" fill="#423930"/>
 <rect x="251" width="10" height="512" fill="#000000"/>
</svg>
