<svg width="512" height="512" version="1.1" viewBox="0 0 135.47 135.47" xmlns="http://www.w3.org/2000/svg">
 <g>
  <path d="m67.733-2.0314e-7a67.733 67.733 0 0 0-10.806 0.86765l-2.573 11.304a57.15 57.15 0 0 0-15.28 6.1164l-9.6625-6.4053a67.733 67.733 0 0 0-16.602 16.21l6.1738 9.8123a57.15 57.15 0 0 0-6.4787 15.13l-11.362 2.3032a67.733 67.733 0 0 0-1.1436 12.395 67.733 67.733 0 0 0 0.86765 10.806l11.304 2.573a57.15 57.15 0 0 0 6.1169 15.28l-6.4053 9.6625a67.733 67.733 0 0 0 16.209 16.601l9.8123-6.1738a57.15 57.15 0 0 0 15.13 6.4792l2.3032 11.362a67.733 67.733 0 0 0 12.395 1.1436 67.733 67.733 0 0 0 10.806-0.86765l2.573-11.304a57.15 57.15 0 0 0 15.28-6.1164l9.6625 6.4053a67.733 67.733 0 0 0 16.602-16.21l-6.1738-9.8123a57.15 57.15 0 0 0 6.4787-15.13l11.362-2.3032a67.733 67.733 0 0 0 1.1441-12.395 67.733 67.733 0 0 0-0.86816-10.806l-11.304-2.573a57.15 57.15 0 0 0-6.1169-15.28l6.4053-9.6625a67.733 67.733 0 0 0-16.209-16.601l-9.8128 6.1738a57.15 57.15 0 0 0-15.13-6.4792l-2.3032-11.362a67.733 67.733 0 0 0-12.395-1.1436z" fill="#464646"/>
  <circle cx="67.733" cy="67.733" r="33.867" fill="#029012" stroke="#000000" stroke-linecap="round" stroke-linejoin="round" stroke-width="2.1167"/>
  <path d="m67.733 1.0583a66.675 66.675 0 0 0-10.637 0.85409l-2.5328 11.128a56.257 56.257 0 0 0-15.041 6.0209l-9.5115-6.3052a66.675 66.675 0 0 0-16.342 15.957l6.0773 9.659a56.257 56.257 0 0 0-6.3774 14.893l-11.185 2.2672a66.675 66.675 0 0 0-1.1257 12.201 66.675 66.675 0 0 0 0.85409 10.637l11.127 2.5328a56.257 56.257 0 0 0 6.0214 15.041l-6.3052 9.5115a66.675 66.675 0 0 0 15.956 16.342l9.659-6.0773a56.257 56.257 0 0 0 14.894 6.378l2.2672 11.185a66.675 66.675 0 0 0 12.201 1.1257 66.675 66.675 0 0 0 10.637-0.85409l2.5328-11.128a56.257 56.257 0 0 0 15.041-6.0208l9.5115 6.3052a66.675 66.675 0 0 0 16.342-15.957l-6.0773-9.659a56.257 56.257 0 0 0 6.3774-14.893l11.185-2.2672a66.675 66.675 0 0 0 1.1262-12.201 66.675 66.675 0 0 0-0.85459-10.637l-11.127-2.5328a56.257 56.257 0 0 0-6.0214-15.041l6.3052-9.5115a66.675 66.675 0 0 0-15.956-16.342l-9.6595 6.0773a56.257 56.257 0 0 0-14.893-6.378l-2.2672-11.185a66.675 66.675 0 0 0-12.201-1.1257z" fill="none" stroke="#000000" stroke-linecap="round" stroke-linejoin="round" stroke-width="2.1167"/>
 </g>
</svg>
