<svg width="512" height="512" version="1.1" viewBox="0 0 512 512" xmlns="http://www.w3.org/2000/svg" xmlns:osb="http://www.openswatchbook.org/uri/2009/osb" xmlns:xlink="http://www.w3.org/1999/xlink">
 <defs>
  <radialGradient id="radialGradient865" cx="255" cy="255.64" r="53.464" gradientTransform="matrix(.57528 .63097 -.77173 .68707 314.33 -84.812)" gradientUnits="userSpaceOnUse">
   <stop stop-color="#00ff00" offset="0"/>
   <stop stop-color="#14c600" stop-opacity="0" offset="1"/>
  </radialGradient>
  <radialGradient id="radialGradient873" cx="255" cy="255.64" r="53.964" gradientTransform="matrix(.56994 .62512 -.76441 .68089 313.82 -81.732)" gradientUnits="userSpaceOnUse">
   <stop stop-color="#00ff00" offset="0"/>
   <stop stop-color="#14c600" stop-opacity="0" offset="1"/>
  </radialGradient>
  <radialGradient id="radialGradient901" cx="240.1" cy="249.9" r="217.27" gradientTransform="matrix(.50583 -.00038401 .00045387 .59786 118.54 100.59)" gradientUnits="userSpaceOnUse" spreadMethod="reflect">
   <stop stop-color="#14c600" offset="0"/>
   <stop stop-color="#00ff00" offset="1"/>
  </radialGradient>
 </defs>
 <path d="m140 145c30.708 40.54 64.942 66.968 90 55 20.57-12.716 6.7965-32.589-16.098-72.252-18.902-32.748-25.749-75.375 1.9357-81.744 32.424-5.9789 44.162 18.997 40.213 66.729-1.7273 20.88 13.949 47.268 33.949 47.268 15 0 32.614-12.533 46.986-32.811 14.599-20.6 23.014-47.189 46.852-33.185 16.162 15.997 4.8408 29.937-19.547 51.771-15.601 13.967-29.291 29.225-28.453 44.229-0.12702 14.354 31.964 34.157 64.252 32.296 39.91-2.2995 59.91 7.7005 55.748 39.704 0.55559 31.113-38.774 29.561-67.807 9.6042-26.232-18.032-49.953-14.22-52.193-9.6042-8.5318 8.5318-5.4116 36.174 15.861 46.589 23.301 11.408 48.301 31.408 32.139 49.411-13.838 11.997-50.379 2.4876-63.975-20.98-9.8627-17.023-14.863-32.023-32.025-27.02-12.838 4.9966-17.021 34.698-17.371 69.062-0.46746 45.935-15.467 80.935-54.629 74.938-40.838-9.0034-30.838-49.003-9.5251-84.732 22.766-31.164 16.31-50.873 1.2436-58.062-13.326-6.3587-33.388-2.9227-45.921 11.044-16.636 22.746-36.636 42.746-56.636 22.746-6.9601-10-2.244-24.016 9.9269-35.408 14.455-13.529 25.073-14.592 28.911-23.589 6.162-16.003-23.56-24.19-53.052-25.158-25.786-0.84575-67.705 14.154-66.948-22.842 2.9636-38.003 53.081-18.003 72.677-8.6294 32.378 15.488 63.484 22.87 71.323 8.6294 7.162-18.003-21.793-50.319-52.838-68.003-38.697-19.374-47.293-15.189-55-35-5.1523-18.386 7.8863-34.395 25-35 22.861-0.49544 33.633 17.188 55 45z" fill="url(#radialGradient901)" stroke="#006400" stroke-width="2"/>
 <path d="m218.55 228.28c5.4364-4.8121 21.358-12.331 31.445-18.281 9.7764-5.2013 19.434-15.038 25-15 5.3651 0.20934 18.654 11.686 30 15 11.692 4.045 12.649 10.266 18.06 16.937 6.5412 7.0739-6.2828 38.467-8.0598 43.063 0.42845 6.4765-28.518 25.639-41.949 25.474-13.796-0.5383-57.333-13.081-57.333-13.081s-16.774-4.7194-16.519-16.911c1.713-10.699 14.102-32.202 19.356-37.2z" fill="url(#radialGradient873)" stroke="url(#radialGradient865)" stroke-width="1.1206px"/>
 <path d="m255 410s-8 30-20 30c-3 0-5-2-5-5 2-6 6-6 13-11 6-5 12-14 12-14z" fill="#ffffff"/>
 <path d="m227.85 294.67c18.099 8.2181 20.129 10.333 23.076 25.333 9.0755-15 10.335-15.36 23.076-19-9.1637-1.4671-13.273-1.2397-19 4-2.1-5.0302-10.775-8.7879-27.151-10.333z" fill="#abffab"/>
 <path d="m315 275c1-14 4-22.856 15-26.856" fill="none" stroke="#ffffff" stroke-linecap="round" stroke-width="5"/>
 <path d="m438 242c3.0885 3.7383 4.0782 9.5626 1.0664 10.951-2.5947 1.1962-5.543-4.5606-8.6946-8.24-3.5714-4.1696-6.282-7.1526-3.6174-9.4066 1.7652-1.4931 7.4452 2.0956 11.246 6.6955z" fill="#ffffff"/>
 <path d="m316 192c0 9 4 13 8 18" fill="none" stroke="#ffffff" stroke-linecap="round" stroke-width="3"/>
 <path d="m268.18 165c10 10 29.015 9.0186 38.309 3.0144" fill="none" stroke="#ffffff" stroke-linecap="round" stroke-width="3"/>
 <path d="m222.28 210c24.654-0.16547 25-17.861 25-17.861" fill="none" stroke="#ffffff" stroke-linecap="round" stroke-width="3"/>
 <path d="m156 251c23.868 1.521 19-21 19-21" fill="none" stroke="#ffffff" stroke-linecap="round" stroke-width="3"/>
 <path d="m151 274s6.8282 10.108-3 19" fill="none" stroke="#ffffff" stroke-linecap="round" stroke-width="3"/>
 <path d="m366 334c0 1.9927-1.7651 3.6082-3.9424 3.6082s-5.2982-4.7477-5.2982-6.7405c0-1.9927 0.73656-2.7199 2.9139-2.7199 2.1773 0 6.3267 3.8595 6.3267 5.8522z" fill="#ffffff"/>
 <path d="m115 325c0 1.9927 1.7651 3.6082 3.9424 3.6082s5.2982-4.7477 5.2982-6.7405c0-1.9927-0.73656-2.7199-2.9139-2.7199-2.1773 0-6.3267 3.8595-6.3267 5.8522z" fill="#ffffff"/>
 <ellipse cx="50.29" cy="231.98" rx="7.5" ry="3.5455" fill="#ffffff"/>
 <path d="m89 115c-1.3 2.385-3.2748 4.77-6.5 5.9625-3.3296 1.2311-5.2931-1.5636-5.2931-4.8566s3.3098-5.7701 6.8996-5.7701 6.4988 1.719 4.8934 4.6643z" fill="#ffffff"/>
 <path d="m370 105c-0.42578 2.7284-5.7242 8.2008-8.3378 9.0921-2.6622 0.90787-4.4673 0.1891-4.4673-2.5723 0-2.7614 6.5097-10.42 9.2712-10.42 2.7614 0 4.0021 0.90001 3.5339 3.9z" fill="#ffffff"/>
 <path d="m240.44 67.49c1.0876 1.8756 2.5561 7.5098-1.7731 7.7973-4.6693 0.31015-8.6708-6.2876-13.295-11.69-3.5915-4.1956 0.64471-8.6006 4.7868-8.6006 4.1421 0 8.8375 10.003 10.281 12.493z" fill="#ffffff"/>
</svg>
