<svg width="512" height="512" version="1.1" viewBox="0 0 512 512" xmlns="http://www.w3.org/2000/svg">
 <path d="m218.45 16.936c-32.479-0.23768-64.182 5.9598-93.348 17.611-37.229 14.83-70.111 37.956-96.182 66.906 31.103-23.891 66.681-39.636 103.01-46.619 36.377-7.0286 73.404-4.8547 106.55 5.9941 9.5076 3.1203 18.617 7.0008 27.266 11.52-3.3406-0.18409-6.6807-0.28346-10.018-0.2832-16.047 0.001256-32.02 2.1283-47.602 6.332-26.371 7.4492-49.6 19.783-68.961 35.746-19.562 16.029-35.53 35.009-47.574 55.924-12.274 21.073-20.659 44.312-24.703 68.719-5.1789 32.507-2.7413 65.357 6.8418 96.238 9.4226 29.597 24.53 55.891 43.682 77.887 19.277 22.215 42.124 40.273 67.15 53.686 25.334 13.663 52.981 22.566 81.486 26.166 41.952 5.0153 83.442-0.96101 120.77-15.875 37.229-14.83 70.111-37.958 96.182-66.908-31.103 23.891-66.681 39.636-103.01 46.619-36.377 7.0286-73.404 4.8566-106.55-5.9922-9.5105-3.1213-18.622-7.0025-27.273-11.523 19.408 1.0701 38.803-0.96842 57.627-6.0469 26.371-7.4492 49.6-19.783 68.961-35.746 19.562-16.029 35.53-35.009 47.574-55.924 12.274-21.073 20.659-44.312 24.703-68.719 5.1789-32.507 2.7413-65.357-6.8418-96.238-9.4226-29.597-24.53-55.891-43.682-77.887-19.277-22.215-42.124-40.273-67.15-53.686-25.334-13.663-52.981-22.566-81.486-26.166-9.177-1.0971-18.332-1.6678-27.426-1.7344zm37.252 175.06a64 64 0 0 1 0.29688 0 64 64 0 0 1 64 64 64 64 0 0 1-18.162 44.662 64 64 0 0 1-0.01562 0.01562 64 64 0 0 1-0.45704 0.46289 64 64 0 0 1-0.47656 0.47461 64 64 0 0 1-0.48242 0.47071 64 64 0 0 1-0.48633 0.46289 64 64 0 0 1-0.49219 0.45898 64 64 0 0 1-0.48242 0.44141 64 64 0 0 1-0.01367 0.01367 64 64 0 0 1-0.01953 0.01758 64 64 0 0 1-0.48242 0.42969 64 64 0 0 1-1.0156 0.88281 64 64 0 0 1-1.0352 0.85937 64 64 0 0 1-0.26953 0.21875 64 64 0 0 1-0.25391 0.20313 64 64 0 0 1-0.01367 0.01172 64 64 0 0 1-0.51563 0.40429 64 64 0 0 1-0.5332 0.41016 64 64 0 0 1-0.53711 0.40625 64 64 0 0 1-0.54102 0.39844 64 64 0 0 1-0.54492 0.39258 64 64 0 0 1-0.55078 0.38867 64 64 0 0 1-0.54297 0.375 64 64 0 0 1-0.00976 0.00781 64 64 0 0 1-0.01368 0.00977 64 64 0 0 1-0.54492 0.36523 64 64 0 0 1-0.56054 0.37109 64 64 0 0 1-0.56641 0.36329 64 64 0 0 1-0.54297 0.34375 64 64 0 0 1-0.02539 0.01562 64 64 0 0 1-0.02148 0.01172 64 64 0 0 1-1.1074 0.67578 64 64 0 0 1-0.02148 0.01172 64 64 0 0 1-0.29883 0.17578 64 64 0 0 1-0.28125 0.16406 64 64 0 0 1-0.0918 0.05274 64 64 0 0 1-0.47851 0.27343 64 64 0 0 1-0.01367 0.00782 64 64 0 0 1-0.01172 0.00586 64 64 0 0 1-0.57617 0.32226 64 64 0 0 1-0.58985 0.32227 64 64 0 0 1-0.59375 0.31445 64 64 0 0 1-0.54883 0.28516 64 64 0 0 1-0.04882 0.02539 64 64 0 0 1-0.3086 0.15625 64 64 0 0 1-0.29101 0.14648 64 64 0 0 1-0.3125 0.1543 64 64 0 0 1-0.29297 0.14258 64 64 0 0 1-0.31055 0.15039 64 64 0 0 1-0.11914 0.05664 64 64 0 0 1-0.38672 0.18164 64 64 0 0 1-0.10351 0.04883 64 64 0 0 1-0.29688 0.13672 64 64 0 0 1-0.02148 0.00976 64 64 0 0 1-0.4961 0.22461 64 64 0 0 1-0.09375 0.04297 64 64 0 0 1-0.31836 0.14062 64 64 0 0 1-0.29882 0.13086 64 64 0 0 1-0.31836 0.13672 64 64 0 0 1-0.29883 0.12696 64 64 0 0 1-0.08399 0.03515 64 64 0 0 1-0.47461 0.19727 64 64 0 0 1-0.0625 0.02539 64 64 0 0 1-0.32226 0.13086 64 64 0 0 1-0.30274 0.12109 64 64 0 0 1-0.32226 0.12696 64 64 0 0 1-0.00781 0.0039 64 64 0 0 1-0.55078 0.21094 64 64 0 0 1-0.06836 0.02734 64 64 0 0 1-0.30664 0.11524 64 64 0 0 1-0.32422 0.11914 64 64 0 0 1-0.30664 0.11133 64 64 0 0 1-0.32618 0.11718 64 64 0 0 1-0.30859 0.10938 64 64 0 0 1-0.12305 0.04101 64 64 0 0 1-0.51172 0.17578 64 64 0 0 1-0.33007 0.11133 64 64 0 0 1-0.14258 0.04688 64 64 0 0 1-0.4961 0.16015 64 64 0 0 1-0.46875 0.14844 64 64 0 0 1-0.48437 0.14844 64 64 0 0 1-0.13477 0.04102 64 64 0 0 1-18.402 2.7031 64 64 0 0 1-64-64 64 64 0 0 1 19.232-45.736 64 64 0 0 1 0.12696-0.12305 64 64 0 0 1 0.48437-0.46679 64 64 0 0 1 0.48828-0.46094 64 64 0 0 1 0.36524-0.33789 64 64 0 0 1 0.00585-0.00586 64 64 0 0 1 0.37305-0.33789 64 64 0 0 1 0.19727-0.17969 64 64 0 0 1 0.13281-0.11718 64 64 0 0 1 0.42383-0.375 64 64 0 0 1 0.50586-0.44141 64 64 0 0 1 0.00195 0 64 64 0 0 1 0.00195-0.00195 64 64 0 0 1 0.51172-0.4336 64 64 0 0 1 0.38086-0.3164 64 64 0 0 1 0.02149-0.01758 64 64 0 0 1 0.29687-0.24219 64 64 0 0 1 0.33984-0.27734 64 64 0 0 1 0.91797-0.72461 64 64 0 0 1 0.08203-0.0625 64 64 0 0 1 0.17383-0.13282 64 64 0 0 1 0.40821-0.3125 64 64 0 0 1 0.05664-0.04296 64 64 0 0 1 0.42578-0.31641 64 64 0 0 1 0.15234-0.11328 64 64 0 0 1 1.0059-0.72266 64 64 0 0 1 0.55274-0.38476 64 64 0 0 1 0.55468-0.37891 64 64 0 0 1 0.54102-0.36133 64 64 0 0 1 0.08984-0.06055 64 64 0 0 1 0.44922-0.29101 64 64 0 0 1 0.13086-0.08594 64 64 0 0 1 0.47852-0.30469 64 64 0 0 1 0.00195 0 64 64 0 0 1 0.00391-0.00195 64 64 0 0 1 0.5664-0.35156 64 64 0 0 1 0.57617-0.34961 64 64 0 0 1 0.57813-0.34375 64 64 0 0 1 0.54883-0.31836 64 64 0 0 1 0.16992-0.0957 64 64 0 0 1 0.44922-0.25391 64 64 0 0 1 1.1816-0.64453 64 64 0 0 1 0.5957-0.31055 64 64 0 0 1 0.59961-0.30664 64 64 0 0 1 0.44336-0.22265 64 64 0 0 1 0.08594-0.04297 64 64 0 0 1 0.24218-0.11719 64 64 0 0 1 0.43555-0.21094 64 64 0 0 1 0.60547-0.28515 64 64 0 0 1 0.00977-0.00586 64 64 0 0 1 0.57226-0.26368 64 64 0 0 1 0.10742-0.04687 64 64 0 0 1 0.53907-0.24023 64 64 0 0 1 0.61718-0.26758 64 64 0 0 1 0.61914-0.26172 64 64 0 0 1 0.62305-0.25391 64 64 0 0 1 0.625-0.24805 64 64 0 0 1 0.61719-0.23828 64 64 0 0 1 0.04883-0.01757 64 64 0 0 1 0.58203-0.2168 64 64 0 0 1 0.03711-0.01367 64 64 0 0 1 0.60547-0.21875 64 64 0 0 1 1.9141-0.64453 64 64 0 0 1 0.64062-0.20118 64 64 0 0 1 0.37696-0.11523v-0.00195a64 64 0 0 1 18.174-2.7227z" fill="#55acee" fill-rule="evenodd" stroke="#55acee" stroke-linecap="round" stroke-width="8"/>
</svg>
