<svg width="512" height="512" version="1.1" viewBox="0 0 135.47 135.47" xmlns="http://www.w3.org/2000/svg">
 <path transform="scale(.26459)" d="m255.49 16a240 240 0 0 0-239.49 240 240 240 0 0 0 240 240 240 240 0 0 0 240-240 240 240 0 0 0-240-240 240 240 0 0 0-0.50781 0zm0.01367 32a208 208 0 0 1 0.49414 0 208 208 0 0 1 208 208 208 208 0 0 1-208 208 208 208 0 0 1-208-208 208 208 0 0 1 207.51-208zm-39.506 88v80h-80v80h80v80h80v-80h80v-80h-80v-80h-80z" fill="#65b049" stroke-linejoin="round" stroke-width="1.092"/>
</svg>
