<svg width="512" height="512" version="1.1" viewBox="0 0 512 512" xmlns="http://www.w3.org/2000/svg" xmlns:xlink="http://www.w3.org/1999/xlink">
 <defs>
  <radialGradient id="radialGradient889" cx="256" cy="256" r="248" gradientTransform="matrix(.45968 .0080645 -.016424 .23404 142.53 294.02)" gradientUnits="userSpaceOnUse" spreadMethod="reflect">
   <stop stop-color="#8e8e8e" offset="0"/>
   <stop stop-color="#666666" offset="1"/>
  </radialGradient>
 </defs>
 <g>
  <circle cx="256" cy="356" rx="248" ry="124" fill="url(#radialGradient889)" stroke-width="0"/>
  <circle cx="256" cy="356" rx="200" ry="100" fill="#7a7a7a" stroke-width="0"/>
  <circle cx="256" cy="356" rx="24" ry="12" fill="#f7d505" stroke-width="0"/>
  <path d="m218.22 35.512c-2.6296 0.035055-5.2031 0.35352-7.7031 0.97852-43.558 19.359 67.477 71.512 74.637 106.58a90 72 0 0 0-25.773 5.8398c-11.265-19.793-95.064-91.695-118.86-77.416-43.158 28.772 70.07 52.876 101.43 85.744a90 72 0 0 0-35.434 57.256 90 72 0 0 0 29.049 52.975 60 80 20 0 0-23.381 17.176c-34.483 9.0573-66.746 44.559-45.227 65.805-8.3136 1.6021-14.457 7.4842-14.457 14.555 0 8.31 8.474 15 19 15h17.041a60 80 20 0 0 0.2871 0.86914c-1.6402 2.3661-2.5871 5.1988-2.4726 8.4609 0.52954 24.629-10.521 45.302-24.625 67.658-4.5475 12.494 0.17414 25.603 10.586 29.393 10.412 3.7896 20.949-3.8727 27.002-15.711 9.8858-19.334 17.311-37.277 21.875-55.068a60 80 20 0 0 8.9043 1.9863c-4.4858 11.562-11 22.783-18.367 34.461-4.5475 12.494 0.17414 25.603 10.586 29.393 10.412 3.7896 20.949-3.8727 27.002-15.711 11.081-21.671 19.059-41.595 23.393-61.518a60 80 20 0 0 3.2305-2.625c3.6631 0.90465 7.322 1.6983 10.986 2.3555 12.494 4.5475 25.603-0.17415 29.393-10.586 3.7142-10.205-2.185-26.779-14.932-26.996a60 80 20 0 0 2.3223-5.8398 60 80 20 0 0-3.7051-74.086 90 72 0 0 0 86.51-71.945 90 72 0 0 0-76.141-71.139c-3.0435-47.838-53.561-108.35-92.156-107.84z" fill="#990033"/>
 </g>
</svg>
