<?xml version="1.0" encoding="UTF-8"?>
<svg version="1.1" xmlns="http://www.w3.org/2000/svg" width="342" height="334">
<path d="M0 0 C1.32 0.33 2.64 0.66 4 1 C4.05945801 2.08933838 4.11891602 3.17867676 4.18017578 4.30102539 C5.97528467 36.91485689 8.15857348 69.49711529 10.4553833 102.07888794 C10.55147007 103.44225092 10.55147007 103.44225092 10.64949799 104.83315659 C10.77756671 106.64901941 10.90582563 108.46486883 11.03427887 110.2807045 C11.35041743 114.76456951 11.65953508 119.24873824 11.95465088 123.73403931 C12.07104836 125.49742401 12.18756308 127.26080099 12.30419922 129.02416992 C12.36080971 129.88195415 12.4174202 130.73973839 12.47574615 131.62351608 C12.78322405 136.17107337 13.14399854 140.70706259 13.5863657 145.24343777 C16.3549668 173.8240828 13.49959546 202.30406653 11.24870056 230.82978117 C10.63728561 238.58753783 10.05480345 246.34742381 9.47265625 254.10742188 C9.26473119 256.87486284 9.05657122 259.64228606 8.8482666 262.40969849 C8.79735886 263.08621842 8.74645112 263.76273834 8.69400072 264.45975888 C8.34168237 269.1354939 7.98452281 273.8108386 7.62536621 278.48605347 C6.25734465 296.31551897 4.99557136 314.14555343 4 332 C2.68 332.33 1.36 332.66 0 333 C-0.03636566 332.37839996 -0.07273132 331.75679993 -0.11019897 331.11636353 C-1.25540836 311.88206583 -2.6876636 292.67230968 -4.1640625 273.4609375 C-4.36399468 270.84988019 -4.56384333 268.23881649 -4.76361084 265.62774658 C-5.59251164 254.80175129 -6.42164088 243.97578632 -7.26464844 233.15087891 C-7.78643657 226.45018518 -8.29965988 219.74887993 -8.80823898 213.04716873 C-9.00070558 210.52999461 -9.19598723 208.01303381 -9.39436722 205.49631882 C-11.3701981 180.40228986 -10.87595671 156.13043197 -9.01364064 131.0573566 C-8.7307582 127.22485459 -8.45698277 123.39170127 -8.18223572 119.55860901 C-7.66154427 112.31180661 -7.1336577 105.06554936 -6.60271591 97.81949145 C-5.65395331 84.86745155 -4.71850825 71.91444472 -3.78441805 58.96133953 C-3.45791683 54.43752918 -3.12851928 49.91394203 -2.79667157 45.39052087 C-1.68829071 30.26757874 -0.64566209 15.15088686 0 0 Z " fill="#E20511" transform="translate(168,1)"/>
<path d="M0 0 C6.0512433 0.58025621 11.4788851 1.86641707 17.25 3.75 C18.49680542 4.1531543 18.49680542 4.1531543 19.76879883 4.56445312 C44.64014946 12.73022886 44.64014946 12.73022886 52 24 C52.66490828 28.1372071 52.37212709 30.25574583 50.5 34 C29.14692873 59.62368552 -15.87733283 66.9333839 -46.6875 74.5 C-47.57585541 74.71968445 -48.46421082 74.9393689 -49.37948608 75.16571045 C-51.94238271 75.79624577 -54.50765035 76.41584899 -57.07421875 77.03125 C-58.20398132 77.30873581 -58.20398132 77.30873581 -59.35656738 77.59182739 C-64.87445853 78.89201926 -70.35196751 79.5492429 -76 80 C-76.03931137 80.6341835 -76.07862274 81.268367 -76.11912537 81.92176819 C-77.65871701 106.45339796 -79.58560737 130.95419692 -81.51391602 155.45776367 C-81.97614543 161.33229429 -82.4346858 167.20710663 -82.89228153 173.08199978 C-83.24843792 177.6486091 -83.60668185 182.21505284 -83.96554375 186.78145027 C-84.13566965 188.94986679 -84.30511002 191.11833721 -84.47383308 193.28686333 C-84.70834848 196.29745441 -84.94572527 199.30780682 -85.18383789 202.31811523 C-85.25190643 203.19959229 -85.31997498 204.08106934 -85.3901062 204.98925781 C-85.76557109 209.69422051 -86.27654563 214.33549567 -87 219 C-87.66 219 -88.32 219 -89 219 C-89.914865 215.03607107 -90.19926651 211.24614038 -90.34130859 207.18359375 C-90.36595593 206.51204978 -90.39060328 205.84050581 -90.41599751 205.14861202 C-90.49722617 202.91169165 -90.5727503 200.67461416 -90.6484375 198.4375 C-90.70570364 196.83832831 -90.76339704 195.23917187 -90.82148743 193.64002991 C-90.94529771 190.2152607 -91.06686101 186.79042247 -91.18661499 183.36550903 C-91.50379042 174.30451138 -91.83558852 165.24404438 -92.16796875 156.18359375 C-92.20166628 155.2619235 -92.23536381 154.34025326 -92.27008247 153.39065361 C-93.06387051 131.7290002 -94.00627763 110.07435651 -94.98821354 88.42051029 C-95.08341084 86.3165349 -95.17784128 84.21252652 -95.27201843 82.10850525 C-95.38589533 79.57111862 -95.50148409 77.03380793 -95.61921692 74.49659729 C-95.89617888 68.32302755 -96.05784699 62.17978195 -96 56 C-91.26722034 54.89452003 -86.51904059 54.55617668 -81.6875 54.16796875 C-79.80245155 54.0103089 -77.91744328 53.85216797 -76.0324707 53.69360352 C-75.04767731 53.61135529 -74.06288391 53.52910706 -73.04824829 53.44436646 C-13.61076263 50.39975264 -13.61076263 50.39975264 41 30 C43.30745935 27.24689917 43.30745935 27.24689917 42.6875 24.5 C41.90666785 20.62845457 41.90666785 20.62845457 39.3046875 18.01171875 C38.54414063 17.67785156 37.78359375 17.34398438 37 17 C36.11570312 16.51144531 35.23140625 16.02289063 34.3203125 15.51953125 C25.89200462 11.01687777 17.39298604 8.02132885 8.20166016 5.39770508 C7.28304199 5.12724365 6.36442383 4.85678223 5.41796875 4.578125 C4.59063232 4.34512695 3.7632959 4.11212891 2.91088867 3.87207031 C2.28029541 3.58428711 1.64970215 3.29650391 1 3 C0.505 1.515 0.505 1.515 0 0 Z " fill="#E20511" transform="translate(290,95)"/>
<path d="M0 0 C-1 2 -1 2 -3.1262207 2.86621094 C-4.05007568 3.15270508 -4.97393066 3.43919922 -5.92578125 3.734375 C-6.94502686 4.05817139 -7.96427246 4.38196777 -9.0144043 4.71557617 C-10.64696167 5.22761597 -10.64696167 5.22761597 -12.3125 5.75 C-28.89401454 10.5045365 -28.89401454 10.5045365 -42 21 C-43.31901591 23.42410136 -43.31901591 23.42410136 -43 26 C-32.99534085 40.29237021 -3.03203494 42.57721622 12.65625 45.41796875 C33.09155164 48.97504812 53.64835941 50.91871483 74.30004883 52.69360352 C75.22816376 52.77375702 76.15627869 52.85391052 77.11251831 52.93649292 C78.85891139 53.08643227 80.60550495 53.23406172 82.35232544 53.37893677 C83.14025482 53.44619965 83.9281842 53.51346252 84.73999023 53.58276367 C85.4208519 53.63953781 86.10171356 53.69631195 86.8032074 53.75480652 C89.55539573 54.06199011 92.27002254 54.53779553 95 55 C95.14758769 73.68488686 94.77471737 92.28279834 93.94140625 110.94921875 C93.83121693 113.51404278 93.72152235 116.07888811 93.61228943 118.64375305 C93.38468801 123.96050107 93.15349318 129.27707205 92.91870117 134.59350586 C92.59008985 142.03461385 92.27007703 149.47607463 91.95143807 156.91761529 C91.69992773 162.78239559 91.4456474 168.64705634 91.19140625 174.51171875 C91.13870638 175.73059973 91.08600651 176.94948071 91.03170967 178.20529747 C90.45563377 191.47704924 89.84119377 204.74214464 89 218 C88.01 218 87.02 218 86 218 C85.91024902 216.75694092 85.82049805 215.51388184 85.72802734 214.2331543 C83.60323834 184.88252022 81.35816181 155.54273831 79.01386261 126.20889664 C78.81285775 123.69197966 78.61239372 121.17502009 78.41204834 118.65805054 C78.09306972 114.65271005 77.77247192 110.6475023 77.45057869 106.64239502 C77.33164436 105.1605881 77.21313521 103.67874698 77.09509087 102.1968689 C76.50400225 94.78421753 75.87798199 87.38513809 75 80 C73.42424194 79.64603149 73.42424194 79.64603149 71.81665039 79.28491211 C0.41926871 63.20686012 0.41926871 63.20686012 -31 48 C-32.06734375 47.49855469 -33.1346875 46.99710938 -34.234375 46.48046875 C-41.09731074 43.03952169 -48.46821085 38.06357829 -52 31 C-52.36467769 25.43866525 -52.3129623 22.65746045 -49 18 C-39.35965792 8.91967779 -25.1517124 4.79740785 -12.75 1 C-11.69607056 0.67008057 -11.69607056 0.67008057 -10.62084961 0.33349609 C-6.73123069 -0.79481914 -3.8993995 -1.20911612 0 0 Z " fill="#E20511" transform="translate(53,96)"/>
<path d="M0 0 C1.32 0.33 2.64 0.66 4 1 C4 2.98 4 4.96 4 7 C3.01 7.33 2.02 7.66 1 8 C0.67 5.36 0.34 2.72 0 0 Z " fill="#E70108" transform="translate(168,1)"/>
<path d="M0 0 C0 1.98 0 3.96 0 6 C-1.32 6.33 -2.64 6.66 -4 7 C-4 5.02 -4 3.04 -4 1 C-2 0 -2 0 0 0 Z " fill="#E8010A" transform="translate(172,327)"/>
</svg>
